<?xml version="1.0" encoding="UTF-8" standalone="no"?>
<!-- Created with Inkscape (http://www.inkscape.org/) -->
<svg xmlns:dc="http://purl.org/dc/elements/1.1/" xmlns:cc="http://creativecommons.org/ns#" xmlns:rdf="http://www.w3.org/1999/02/22-rdf-syntax-ns#" xmlns:svg="http://www.w3.org/2000/svg" xmlns="http://www.w3.org/2000/svg" xmlns:xlink="http://www.w3.org/1999/xlink" xmlns:sodipodi="http://sodipodi.sourceforge.net/DTD/sodipodi-0.dtd" xmlns:inkscape="http://www.inkscape.org/namespaces/inkscape" width="354.81235" height="512.16974" id="svg2" version="1.1" inkscape:version="0.47pre4 r22446" sodipodi:docname="new_gnome_bulb.svg">
  <defs id="defs4">
    <inkscape:perspective sodipodi:type="inkscape:persp3d" inkscape:vp_x="0 : 526.18109 : 1" inkscape:vp_y="0 : 1000 : 0" inkscape:vp_z="744.09448 : 526.18109 : 1" inkscape:persp3d-origin="372.04724 : 350.78739 : 1" id="perspective10"/>
    <linearGradient id="linearGradient20210">
      <stop id="stop20212" offset="0.0000000" style="stop-color: rgb(0, 0, 0); stop-opacity: 0.515464;"/>
      <stop style="stop-color: rgb(0, 0, 0); stop-opacity: 0.14433;" offset="0.55172414" id="stop20218"/>
      <stop id="stop20214" offset="1" style="stop-color: rgb(0, 0, 0); stop-opacity: 0;"/>
    </linearGradient>
    <linearGradient id="linearGradient4666" inkscape:collect="always">
      <stop id="stop4668" offset="0" style="stop-color: rgb(255, 255, 255); stop-opacity: 1;"/>
      <stop id="stop4670" offset="1" style="stop-color: rgb(255, 255, 255); stop-opacity: 0;"/>
    </linearGradient>
    <linearGradient id="linearGradient4694">
      <stop id="stop4696" offset="0" style="stop-color: rgb(233, 241, 248); stop-opacity: 1;"/>
      <stop id="stop4698" offset="1" style="stop-color: rgb(55, 107, 163); stop-opacity: 0.839216;"/>
    </linearGradient>
    <linearGradient id="linearGradient4712">
      <stop id="stop4714" offset="0" style="stop-color: rgb(91, 140, 203); stop-opacity: 1;"/>
      <stop id="stop4716" offset="1" style="stop-color: rgb(52, 101, 164); stop-opacity: 1;"/>
    </linearGradient>
    <linearGradient id="linearGradient2990">
      <stop id="stop2992" offset="0" style="stop-color: rgb(52, 101, 164); stop-opacity: 1;"/>
      <stop id="stop2994" offset="1" style="stop-color: rgb(52, 101, 164); stop-opacity: 0;"/>
    </linearGradient>
    <inkscape:perspective id="perspective2859" inkscape:persp3d-origin="24 : 16 : 1" inkscape:vp_z="48 : 24 : 1" inkscape:vp_y="0 : 1000 : 0" inkscape:vp_x="0 : 24 : 1" sodipodi:type="inkscape:persp3d"/>
    <inkscape:perspective id="perspective2947" inkscape:persp3d-origin="0.5 : 0.33333333 : 1" inkscape:vp_z="1 : 0.5 : 1" inkscape:vp_y="0 : 1000 : 0" inkscape:vp_x="0 : 0.5 : 1" sodipodi:type="inkscape:persp3d"/>
    <linearGradient id="linearGradient2990-8">
      <stop id="stop2992-7" offset="0" style="stop-color: rgb(52, 101, 164); stop-opacity: 1;"/>
      <stop id="stop2994-9" offset="1" style="stop-color: rgb(52, 101, 164); stop-opacity: 0;"/>
    </linearGradient>
    <linearGradient id="linearGradient4694-4">
      <stop id="stop4696-8" offset="0" style="stop-color: rgb(233, 241, 248); stop-opacity: 1;"/>
      <stop id="stop4698-7" offset="1" style="stop-color: rgb(55, 107, 163); stop-opacity: 0.839216;"/>
    </linearGradient>
    <linearGradient id="linearGradient4712-8">
      <stop id="stop4714-6" offset="0" style="stop-color: rgb(91, 140, 203); stop-opacity: 1;"/>
      <stop id="stop4716-2" offset="1" style="stop-color: rgb(52, 101, 164); stop-opacity: 1;"/>
    </linearGradient>
    <radialGradient inkscape:collect="always" xlink:href="#linearGradient4694" id="radialGradient3077" gradientUnits="userSpaceOnUse" gradientTransform="matrix(23.378, 0, 0, 25.651, -196.421, 131.395)" cx="26.435322" cy="17.031229" fx="26.435322" fy="17.031229" r="13.244088"/>
    <linearGradient inkscape:collect="always" xlink:href="#linearGradient4712" id="linearGradient3079" gradientUnits="userSpaceOnUse" gradientTransform="matrix(12.8356, 0, 0, 11.8961, 75.108, 295.455)" x1="20.643551" y1="9.0398531" x2="25.755913" y2="26.8943"/>
    <radialGradient inkscape:collect="always" xlink:href="#linearGradient4666" id="radialGradient3081" gradientUnits="userSpaceOnUse" gradientTransform="matrix(27.4476, 0, 0, 30.0996, -301.238, 99.7189)" cx="25.755905" cy="9.9372978" fx="25.755905" fy="9.9372978" r="12.139711"/>
    <linearGradient inkscape:collect="always" xlink:href="#linearGradient2990" id="linearGradient3083" gradientUnits="userSpaceOnUse" gradientTransform="matrix(12.8356, 0, 0, 11.8961, 75.108, 295.455)" x1="26" y1="22.116529" x2="27.550253" y2="28.126938"/>
  </defs>
  <sodipodi:namedview id="base" pagecolor="#ffffff" bordercolor="#666666" borderopacity="1.0" inkscape:pageopacity="0.0" inkscape:pageshadow="2" inkscape:zoom="0.35" inkscape:cx="159.05606" inkscape:cy="263.596" inkscape:document-units="px" inkscape:current-layer="layer1" showgrid="false" inkscape:window-width="773" inkscape:window-height="649" inkscape:window-x="0" inkscape:window-y="25" inkscape:window-maximized="0" inkscape:snap-global="false">
    <sodipodi:guide position="-215.94394,-256.404" orientation="0,744.09448" id="guide3196"/>
    <sodipodi:guide position="528.15054,-256.404" orientation="-1052.3622,0" id="guide3198"/>
    <sodipodi:guide position="528.15054,795.9582" orientation="0,-744.09448" id="guide3200"/>
    <sodipodi:guide position="-215.94394,795.9582" orientation="1052.3622,0" id="guide3202"/>
  </sodipodi:namedview>
  <metadata id="metadata7">
    <rdf:RDF>
      <cc:Work rdf:about="">
        <dc:format>image/svg+xml</dc:format>
        <dc:type rdf:resource="http://purl.org/dc/dcmitype/StillImage"/>
        <dc:title/>
      </cc:Work>
    </rdf:RDF>
  </metadata>
  <g inkscape:label="Layer 1" inkscape:groupmode="layer" id="layer1" transform="translate(-215.944, -283.788)">
    <g id="g3056" transform="translate(-20, -42.8571)">
      <g transform="translate(-485.429, 255.143)" id="g3051">
        <path style="fill: rgb(179, 179, 179); fill-rule: nonzero; stroke: rgb(179, 179, 179); stroke-width: 12.3569; stroke-miterlimit: 4; stroke-opacity: 1;" d="m 865.12845,529.96478 0,16.45242 c 0,16.45241 18.10754,31.0768 38.47851,31.0768 20.37098,0 38.4785,-14.62439 38.4785,-31.0768 l 0,-16.45242 -76.95701,0 z" id="path19509-4" inkscape:r_cx="true" inkscape:r_cy="true"/>
        <path inkscape:r_cy="true" inkscape:r_cx="true" sodipodi:nodetypes="cccccccscccccccs" id="path3209-7" d="m 901.49101,396.08529 c -41.93115,-0.094 -89.48238,11.38437 -63.71546,33.0835 -6.38858,2.3994 -15.52057,7.7581 -14.44407,20.29749 0.59442,6.54876 8.04982,10.56866 18.24565,13.52017 -11.5585,7.54807 -18.91324,15.52427 -18.24565,22.8803 0.58749,6.4724 7.88593,10.90478 17.87329,13.86685 -11.26725,7.4612 -18.53174,15.62514 -17.87329,22.88029 1.00631,11.0883 26.6929,23.50869 82.31349,22.0782 40.04616,-1.01629 75.38468,-7.69905 78.17366,-22.0782 1.09513,-5.6462 -3.86816,-10.91435 -11.54316,-15.60019 5.74554,-5.39161 9.77065,-10.8602 9.309,-15.94688 -0.59018,-6.5029 -7.80284,-10.90886 -17.87327,-13.86684 11.26724,-7.4612 18.53172,-15.62513 17.87327,-22.8803 -0.59018,-6.50289 -7.80284,-10.56217 -17.87327,-13.52017 11.40159,-7.50151 18.53597,-15.57847 17.87327,-22.8803 -0.73664,-8.11647 -40.68379,-21.74538 -80.09346,-21.83392 z" style="overflow: visible; marker: none; color: rgb(0, 0, 0); fill: rgb(179, 179, 179); fill-opacity: 1; fill-rule: nonzero; stroke: rgb(179, 179, 179); stroke-width: 24.7139; stroke-linecap: round; stroke-linejoin: round; stroke-miterlimit: 4; stroke-opacity: 1; stroke-dashoffset: 0pt; visibility: visible; display: inline;"/>
        <path style="overflow: visible; marker: none; color: rgb(0, 0, 0); fill: rgb(179, 179, 179); fill-opacity: 1; fill-rule: evenodd; stroke: rgb(179, 179, 179); stroke-width: 12.3569; stroke-linecap: butt; stroke-linejoin: miter; stroke-miterlimit: 4; stroke-opacity: 1; stroke-dasharray: none; stroke-dashoffset: 0pt; visibility: visible; display: inline;" d="m 896.93521,93.018273 c -85.92604,4.54691 -154.08445,70.836237 -154.08445,151.605527 0,45.48504 38.75711,72.38941 55.16475,126.78035 13.6157,45.13574 61.35185,55.35397 103.875,55.35397 51.3434,0 106.44789,-15.76488 118.82079,-70.45399 10.2094,-45.12614 49.2951,-74.35966 49.2951,-111.68033 0,-83.71229 -73.25477,-151.605527 -163.57783,-151.605527 -3.17542,0 -6.36246,-0.16567 -9.49336,0 z" id="path3885-7" sodipodi:nodetypes="csszsssc"/>
      </g>
      <path inkscape:r_cy="true" inkscape:r_cx="true" id="path19509" d="m 364.4001,769.84418 0,16.45242 c 0,16.45241 18.10754,31.0768 38.47851,31.0768 20.37098,0 38.4785,-14.62439 38.4785,-31.0768 l 0,-16.45242 -76.95701,0 z" style="fill: rgb(85, 87, 83); fill-rule: nonzero; stroke: rgb(46, 52, 54); stroke-width: 12.3569; stroke-miterlimit: 4; stroke-opacity: 1;"/>
      <path style="overflow: visible; marker: none; color: rgb(0, 0, 0); fill: rgb(174, 174, 87); fill-opacity: 1; fill-rule: nonzero; stroke: rgb(196, 160, 0); stroke-width: 24.7139; stroke-linecap: round; stroke-linejoin: round; stroke-miterlimit: 4; stroke-opacity: 1; stroke-dashoffset: 0pt; visibility: visible; display: inline;" d="m 400.76266,635.96469 c -41.93115,-0.094 -89.48238,11.38437 -63.71546,33.0835 -6.38858,2.3994 -15.52057,7.7581 -14.44407,20.29749 0.59442,6.54876 8.04982,10.56866 18.24565,13.52017 -11.5585,7.54807 -18.91324,15.52427 -18.24565,22.8803 0.58749,6.4724 7.88593,10.90478 17.87329,13.86685 -11.26725,7.4612 -18.53174,15.62514 -17.87329,22.88029 1.00631,11.0883 26.6929,23.50869 82.31349,22.0782 40.04616,-1.01629 75.38468,-7.69905 78.17366,-22.0782 1.09513,-5.6462 -3.86816,-10.91435 -11.54316,-15.60019 5.74554,-5.39161 9.77065,-10.8602 9.309,-15.94688 -0.59018,-6.5029 -7.80284,-10.90886 -17.87327,-13.86684 11.26724,-7.4612 18.53172,-15.62513 17.87327,-22.8803 -0.59018,-6.50289 -7.80284,-10.56217 -17.87327,-13.52017 11.40159,-7.50151 18.53597,-15.57847 17.87327,-22.8803 -0.73664,-8.11647 -40.68379,-21.74538 -80.09346,-21.83392 z" id="path3209" sodipodi:nodetypes="cccccccscccccccs" inkscape:r_cx="true" inkscape:r_cy="true"/>
      <path inkscape:r_cy="true" inkscape:r_cx="true" transform="matrix(7.65198, -1.52028, 0.816103, 8.99212, 484.66, 406.079)" d="m -3.5355339,27.228739 c 0,1.806175 -4.6300188,3.270369 -10.3414361,3.270369 -5.711418,0 -10.341437,-1.464194 -10.341437,-3.270369 0,-1.806175 4.630019,-3.270369 10.341437,-3.270369 5.7114173,0 10.3414361,1.464194 10.3414361,3.270369 z" sodipodi:ry="3.2703688" sodipodi:rx="10.341436" sodipodi:cy="27.228739" sodipodi:cx="-13.87697" id="path4702" style="overflow: visible; marker: none; color: rgb(0, 0, 0); fill: rgb(252, 233, 79); fill-opacity: 1; fill-rule: nonzero; stroke: none; stroke-width: 0.130352; visibility: visible; display: inline;" sodipodi:type="arc"/>
      <path style="overflow: visible; marker: none; color: rgb(0, 0, 0); fill: rgb(252, 233, 79); fill-opacity: 1; fill-rule: nonzero; stroke: none; stroke-width: 0.088289; visibility: visible; display: inline;" d="m 482.12047,761.97106 c -2.78899,14.37916 -42.26003,22.49359 -105.43568,19.54832 -40.01092,-1.86532 -42.30044,-12.28775 -39.51147,-26.66692 2.78899,-14.37916 37.52067,-24.45464 77.52608,-22.48991 40.00541,1.96472 70.21004,15.22935 67.42107,29.60851 z" id="path3183" sodipodi:nodetypes="csccc" inkscape:r_cx="true" inkscape:r_cy="true"/>
      <path transform="matrix(7.65198, -1.52028, 0.816103, 8.99212, 484.66, 480.214)" d="m -3.5355339,27.228739 c 0,1.806175 -4.6300188,3.270369 -10.3414361,3.270369 -5.711418,0 -10.341437,-1.464194 -10.341437,-3.270369 0,-1.806175 4.630019,-3.270369 10.341437,-3.270369 5.7114173,0 10.3414361,1.464194 10.3414361,3.270369 z" sodipodi:ry="3.2703688" sodipodi:rx="10.341436" sodipodi:cy="27.228739" sodipodi:cx="-13.87697" id="path1603" style="overflow: visible; marker: none; color: rgb(0, 0, 0); fill: rgb(252, 233, 79); fill-opacity: 1; fill-rule: nonzero; stroke: none; stroke-width: 0.130352; visibility: visible; display: inline;" sodipodi:type="arc" inkscape:r_cx="true" inkscape:r_cy="true"/>
      <path sodipodi:type="arc" style="overflow: visible; marker: none; color: rgb(0, 0, 0); fill: rgb(252, 233, 79); fill-opacity: 1; fill-rule: nonzero; stroke: none; stroke-width: 0.130352; visibility: visible; display: inline;" id="path2364" sodipodi:cx="-13.87697" sodipodi:cy="27.228739" sodipodi:rx="10.341436" sodipodi:ry="3.2703688" d="m -3.5355339,27.228739 c 0,1.806175 -4.6300188,3.270369 -10.3414361,3.270369 -5.711418,0 -10.341437,-1.464194 -10.341437,-3.270369 0,-1.806175 4.630019,-3.270369 10.341437,-3.270369 5.7114173,0 10.3414361,1.464194 10.3414361,3.270369 z" transform="matrix(7.65198, -1.52028, 0.816103, 8.99212, 484.66, 443.627)" inkscape:r_cx="true" inkscape:r_cy="true"/>
      <path sodipodi:type="arc" style="overflow: visible; marker: none; color: rgb(0, 0, 0); fill: rgb(255, 255, 255); fill-opacity: 1; fill-rule: nonzero; stroke: none; stroke-width: 2; visibility: visible; display: inline;" id="path20372" sodipodi:cx="27.75" sodipodi:cy="22.375" sodipodi:rx="3.25" sodipodi:ry="3.25" d="m 31,22.375 c 0,1.794925 -1.455075,3.25 -3.25,3.25 -1.794925,0 -3.25,-1.455075 -3.25,-3.25 0,-1.794925 1.455075,-3.25 3.25,-3.25 1.794925,0 3.25,1.455075 3.25,3.25 z" transform="matrix(4.25882, 0, 0, 3.96501, 238.707, 630.731)" inkscape:r_cx="true" inkscape:r_cy="true"/>
      <path transform="matrix(4.25882, 0, 0, 3.96501, 238.707, 666.28)" d="m 31,22.375 c 0,1.794925 -1.455075,3.25 -3.25,3.25 -1.794925,0 -3.25,-1.455075 -3.25,-3.25 0,-1.794925 1.455075,-3.25 3.25,-3.25 1.794925,0 3.25,1.455075 3.25,3.25 z" sodipodi:ry="3.25" sodipodi:rx="3.25" sodipodi:cy="22.375" sodipodi:cx="27.75" id="path2435" style="overflow: visible; marker: none; color: rgb(0, 0, 0); fill: rgb(255, 255, 255); fill-opacity: 1; fill-rule: nonzero; stroke: none; stroke-width: 2; visibility: visible; display: inline;" sodipodi:type="arc" inkscape:r_cx="true" inkscape:r_cy="true"/>
      <path inkscape:r_cy="true" inkscape:r_cx="true" transform="matrix(4.25882, 0, 0, 3.96501, 238.707, 590.21)" d="m 31,22.375 c 0,1.794925 -1.455075,3.25 -3.25,3.25 -1.794925,0 -3.25,-1.455075 -3.25,-3.25 0,-1.794925 1.455075,-3.25 3.25,-3.25 1.794925,0 3.25,1.455075 3.25,3.25 z" sodipodi:ry="3.25" sodipodi:rx="3.25" sodipodi:cy="22.375" sodipodi:cx="27.75" id="path4708" style="overflow: visible; marker: none; color: rgb(0, 0, 0); fill: rgb(255, 255, 255); fill-opacity: 1; fill-rule: nonzero; stroke: none; stroke-width: 2; visibility: visible; display: inline;" sodipodi:type="arc"/>
      <path sodipodi:type="arc" style="overflow: visible; marker: none; color: rgb(0, 0, 0); fill: rgb(252, 233, 79); fill-opacity: 1; fill-rule: nonzero; stroke: none; stroke-width: 0.130352; visibility: visible; display: inline;" id="path4710" sodipodi:cx="-13.87697" sodipodi:cy="27.228739" sodipodi:rx="10.341436" sodipodi:ry="3.2703688" d="m -3.5355339,27.228739 c 0,1.806175 -4.6300188,3.270369 -10.3414361,3.270369 -5.711418,0 -10.341437,-1.464194 -10.341437,-3.270369 0,-1.806175 4.630019,-3.270369 10.341437,-3.270369 5.7114173,0 10.3414361,1.464194 10.3414361,3.270369 z" transform="matrix(7.82349, 0.177055, -1.47105, 8.92029, 553.417, 418.366)" inkscape:r_cx="true" inkscape:r_cy="true"/>
      <path sodipodi:nodetypes="csszsssc" id="path3885" d="m 396.20686,332.89767 c -85.92604,4.54691 -154.08445,70.83624 -154.08445,151.60553 0,45.48504 38.75711,72.38941 55.16475,126.78035 13.6157,45.13574 61.35185,55.35397 103.875,55.35397 51.3434,0 106.44787,-15.76488 118.8208,-70.45399 10.20938,-45.12614 49.29507,-74.35966 49.29507,-111.68033 -2e-5,-83.71229 -73.25475,-151.60553 -163.57781,-151.60553 -3.17542,0 -6.36246,-0.16567 -9.49336,0 z" style="overflow: visible; marker: none; color: rgb(0, 0, 0); fill: url(#radialGradient3077) rgb(0, 0, 0); fill-opacity: 1; fill-rule: evenodd; stroke: url(#linearGradient3079) rgb(0, 0, 0); stroke-width: 12.3569; stroke-linecap: butt; stroke-linejoin: miter; stroke-miterlimit: 4; stroke-opacity: 1; stroke-dasharray: none; stroke-dashoffset: 0pt; visibility: visible; display: inline;"/>
      <path style="overflow: visible; marker: none; opacity: 0.593407; color: rgb(0, 0, 0); fill: none; stroke: url(#radialGradient3081) rgb(0, 0, 0); stroke-width: 12.3569; stroke-linecap: butt; stroke-linejoin: miter; stroke-miterlimit: 4; stroke-opacity: 1; stroke-dasharray: none; stroke-dashoffset: 0pt; visibility: visible; display: inline;" d="m 396.95499,347.12202 c -79.15471,4.18859 -141.94196,65.25405 -141.94196,139.65837 0,37.73168 42.52346,70.90795 53.75444,111.85286 12.92203,47.10998 53.4311,51.67117 96.93276,51.67117 46.13539,0 91.34441,-6.62498 100.07752,-56.0832 7.15462,-40.51876 50.60969,-72.012 50.60969,-107.44083 -3e-5,-77.1154 -67.48198,-139.65837 -150.68721,-139.65837 -2.92517,0 -5.86106,-0.15261 -8.74524,0 z" id="path4664" sodipodi:nodetypes="csszsssc"/>
      <path sodipodi:nodetypes="cccc" id="path4674" d="m 436.06161,641.10308 49.78513,-148.96007 c -51.34234,-21.00185 -102.68468,-23.83136 -154.02701,5.5466 l 12.83558,35.68844" style="overflow: visible; marker: none; color: rgb(0, 0, 0); fill: none; stroke: url(#linearGradient3083) rgb(0, 0, 0); stroke-width: 12.3569; stroke-linecap: round; stroke-linejoin: round; stroke-miterlimit: 4; stroke-opacity: 1; stroke-dasharray: none; stroke-dashoffset: 0pt; visibility: visible; display: inline;"/>
      <path transform="matrix(9.03126, 0, 0, 9.38485, 175.219, 338.248)" d="m 34.75,10.125 c 0,3.382744 -4.141366,6.125 -9.25,6.125 -5.108634,0 -9.25,-2.742256 -9.25,-6.125 C 16.25,6.7422559 20.391366,4 25.5,4 c 5.108634,0 9.25,2.7422559 9.25,6.125 z" sodipodi:ry="6.125" sodipodi:rx="9.25" sodipodi:cy="10.125" sodipodi:cx="25.5" id="path2998" style="overflow: visible; marker: none; opacity: 0.752577; color: rgb(0, 0, 0); fill: rgb(255, 255, 255); fill-opacity: 1; fill-rule: nonzero; stroke: none; stroke-width: 1.05887; visibility: visible; display: inline;" sodipodi:type="arc"/>
      <path inkscape:transform-center-y="2.8297225" sodipodi:type="arc" style="overflow: visible; marker: none; opacity: 0.685567; color: rgb(0, 0, 0); fill: rgb(255, 255, 255); fill-opacity: 1; fill-rule: nonzero; stroke: none; stroke-width: 1.05887; visibility: visible; display: inline;" id="path3000" sodipodi:cx="25.5" sodipodi:cy="10.125" sodipodi:rx="9.25" sodipodi:ry="6.125" d="m 34.75,10.125 c 0,3.382744 -4.141366,6.125 -9.25,6.125 -5.108634,0 -9.25,-2.742256 -9.25,-6.125 C 16.25,6.7422559 20.391366,4 25.5,4 c 5.108634,0 9.25,2.7422559 9.25,6.125 z" transform="matrix(1.68996, -3.07277, 2.2168, 2.94477, 230.114, 524.463)"/>
    </g>
  </g>
</svg>